 <svg width="150" height="25" viewBox="0 0 115 16" fill="none" xmlns="http://www.w3.org/2000/svg">
      <path d="M7.26967 10.6789C7.30165 11.1461 7.30165 11.6613 7.30165 11.8638C7.30165 14.3919 5.78802 15.8877 3.49449 15.8877C1.51363 15.8877 0.531191 14.9977 0.531191 13.8447V12.9404H0.639561C1.17075 13.5018 2.07502 13.7044 3.10364 13.7044C4.21044 13.7044 4.72564 13.0488 4.72564 11.7857C4.72564 11.6293 4.70965 11.3327 4.67945 11.1781C4.46093 11.7555 3.89954 12.2547 3.24399 12.2547C1.38749 12.2547 0 11.0377 0 8.77618C0 6.24815 1.52961 4.28328 3.88533 4.28328C6.0847 4.28328 7.23946 5.48423 7.23946 8.29296V9.44772C7.23769 9.68045 7.23769 10.2259 7.26967 10.6789ZM3.77518 6.42048C3.08943 6.42048 2.60443 7.12221 2.60443 8.33915C2.60443 9.77461 3.07167 10.1175 3.61884 10.1175C4.32058 10.1175 4.67945 9.5561 4.67945 8.30718C4.67945 6.91969 4.46093 6.42048 3.77518 6.42048Z" fill="#2BAAE2" />
      <path d="M12.26 4.28328C14.4914 4.28328 16.0352 5.96745 16.0352 8.73C16.0352 11.4908 14.6779 13.3011 12.1978 13.3011C9.8741 13.3011 8.40666 11.4908 8.40666 8.87034C8.40844 6.21617 9.8741 4.28328 12.26 4.28328ZM12.1676 6.46666C11.4961 6.46666 10.9827 7.23058 10.9827 8.61985C10.9827 10.4763 11.4979 11.1319 12.308 11.1319C12.8854 11.1319 13.4627 10.5243 13.4627 8.96273C13.4627 6.98187 12.8996 6.46666 12.1676 6.46666Z" fill="#2BAAE2" />
      <path d="M20.8248 4.28328C23.0561 4.28328 24.6 5.96745 24.6 8.73C24.6 11.4908 23.2427 13.3011 20.7626 13.3011C18.4389 13.3011 16.9714 11.4908 16.9714 8.87034C16.9714 6.21617 18.4389 4.28328 20.8248 4.28328ZM20.7324 6.46666C20.0609 6.46666 19.5474 7.23058 19.5474 8.61985C19.5474 10.4763 20.0626 11.1319 20.8728 11.1319C21.4501 11.1319 22.0275 10.5243 22.0275 8.96273C22.0257 6.98187 21.4643 6.46666 20.7324 6.46666Z" fill="#2BAAE2" />
      <path d="M29.3576 13.2993C27.08 13.2993 25.5362 11.4126 25.5362 8.99292C25.5362 5.95146 26.9255 4.2815 28.9845 4.2815C29.7484 4.2815 30.3578 4.67234 30.6225 5.20176V1.84762H31.5268C32.5714 1.84762 33.1487 2.47119 33.1487 3.65793V8.82238C33.1487 11.8479 32.0881 13.2993 29.3576 13.2993ZM29.2332 6.46666C28.6399 6.46666 28.1406 7.15241 28.1406 8.61985C28.1406 10.5225 28.8264 11.1621 29.5601 11.1621C30.3862 11.1621 30.5905 10.304 30.5905 9.0409C30.5905 6.9339 29.9971 6.46666 29.2332 6.46666Z" fill="#2BAAE2" />
      <path d="M40.6991 13.0808C39.7167 13.0808 39.2175 12.6278 39.2175 11.489V8.245C39.2175 6.87172 38.8906 6.48265 38.1569 6.48265C37.5493 6.48265 37.1584 6.90369 37.1584 8.13662V13.0826H36.144C35.1456 13.0826 34.5522 12.5514 34.5522 11.4908V8.21479C34.5522 5.75071 35.9095 4.28328 38.2492 4.28328C40.605 4.28328 41.8219 5.54641 41.8219 8.1988V13.0808H40.6991V13.0808Z" fill="#2BAAE2" />
      <path d="M46.5955 9.75862H45.6291C45.6291 10.6629 46.377 11.1621 47.3914 11.1621C48.6083 11.1621 49.2479 10.8814 49.637 10.4906H49.7151V11.2705C49.7151 12.3311 48.9672 13.2993 46.8762 13.2993C44.5205 13.2993 43.0229 11.537 43.0229 8.94674C43.0229 6.23216 44.5667 4.2815 46.83 4.2815C48.7807 4.2815 50.1682 5.52864 50.1682 7.58945C50.1682 9.33758 48.9832 9.75862 46.5955 9.75862ZM46.7518 6.35652C46.0803 6.35652 45.5971 7.01206 45.5669 8.02648H46.2846C47.5175 8.02648 47.7663 7.77598 47.7663 7.35494C47.7663 6.70117 47.4376 6.35652 46.7518 6.35652Z" fill="#2BAAE2" />
      <path d="M53.9274 13.2993C52.117 13.2993 51.1826 12.5976 51.1826 11.2403V10.4142H51.2767C51.7759 10.9294 52.5558 11.1781 53.5383 11.1781C54.3342 11.1781 54.6149 10.9134 54.6149 10.4923C54.6149 9.99313 54.3342 9.88476 53.1794 9.61828C51.6978 9.2754 51.0422 8.60386 51.0422 7.30875C51.0422 5.54641 52.2894 4.2815 54.3502 4.2815C56.0343 4.2815 56.9404 5.0774 56.9404 6.29434V7.12043H56.8462C56.379 6.63721 55.5991 6.38672 54.725 6.38672C53.8048 6.38672 53.5081 6.6834 53.5081 7.08846C53.5081 7.49351 53.7106 7.58767 54.9435 7.86837C56.1907 8.14906 57.1127 8.91298 57.1127 10.3182C57.1109 12.1143 55.9562 13.2993 53.9274 13.2993Z" fill="#2BAAE2" />
      <path d="M60.9163 13.2993C59.106 13.2993 58.1715 12.5976 58.1715 11.2403V10.4142H58.2657C58.7649 10.9294 59.5448 11.1781 60.5273 11.1781C61.3232 11.1781 61.6039 10.9134 61.6039 10.4923C61.6039 9.99313 61.3232 9.88476 60.1684 9.61828C58.6867 9.2754 58.0312 8.60386 58.0312 7.30875C58.0312 5.54641 59.2783 4.2815 61.3391 4.2815C63.0233 4.2815 63.9294 5.0774 63.9294 6.29434V7.12043H63.8352C63.368 6.63721 62.5881 6.38672 61.714 6.38672C60.7937 6.38672 60.4971 6.6834 60.4971 7.08846C60.4971 7.49351 60.6996 7.58767 61.9325 7.86837C63.1797 8.14906 64.1017 8.91298 64.1017 10.3182C64.0981 12.1143 62.9452 13.2993 60.9163 13.2993Z" fill="#2BAAE2" />
      <path d="M70.7282 13.2211C69.2928 13.2211 68.2642 12.4874 68.2642 10.5385V4.67234H69.0902C70.261 4.67234 70.7904 5.21775 70.7904 6.32632V10.2259C70.7904 10.9276 71.0711 11.1461 71.7729 11.1461H72.1779V11.9882C72.1797 12.7539 71.7124 13.2211 70.7282 13.2211Z" fill="#81C341" />
      <path d="M79.1367 13.0808C78.1542 13.0808 77.655 12.6278 77.655 11.489V8.245C77.655 6.87172 77.3281 6.48265 76.5944 6.48265C75.9869 6.48265 75.596 6.90369 75.596 8.13662V13.0826H74.5816C73.5832 13.0826 72.9898 12.5514 72.9898 11.4908V8.21479C72.9898 5.75071 74.3471 4.28328 76.6868 4.28328C79.0425 4.28328 80.2595 5.54641 80.2595 8.1988V13.0808H79.1367V13.0808Z" fill="#81C341" />
      <path d="M84.3313 13.2993C82.521 13.2993 81.5848 12.5976 81.5848 11.2403V10.4142H81.6789C82.1781 10.9294 82.9581 11.1781 83.9405 11.1781C84.7364 11.1781 85.0171 10.9134 85.0171 10.4923C85.0171 9.99313 84.7364 9.88476 83.5816 9.61828C82.1 9.2754 81.4444 8.60386 81.4444 7.30875C81.4444 5.54641 82.6916 4.2815 84.7524 4.2815C86.4366 4.2815 87.3426 5.0774 87.3426 6.29434V7.12043H87.2484C86.7812 6.63721 86.0013 6.38672 85.1272 6.38672C84.207 6.38672 83.9103 6.6834 83.9103 7.08846C83.9103 7.49351 84.1128 7.58767 85.3457 7.86837C86.5929 8.14906 87.5149 8.91298 87.5149 10.3182C87.5149 12.1143 86.3602 13.2993 84.3313 13.2993Z" fill="#81C341" />
      <path d="M90.1353 3.93863C89.3554 3.93863 88.7159 3.31505 88.7159 2.54936C88.7159 1.78366 89.3554 1.17608 90.1353 1.17608C90.8993 1.17608 91.5246 1.78366 91.5246 2.54936C91.5246 3.31505 90.8993 3.93863 90.1353 3.93863ZM91.3363 13.2211C89.9008 13.2211 88.8722 12.4874 88.8722 10.5385V4.67234H89.6983C90.8691 4.67234 91.3985 5.21775 91.3985 6.32632V10.2259C91.3985 10.9276 91.6792 11.1461 92.3809 11.1461H92.786V11.9882C92.786 12.7539 92.3187 13.2211 91.3363 13.2211Z" fill="#81C341" />
      <path d="M97.1545 13.2993C94.877 13.2993 93.3331 11.4126 93.3331 8.99292C93.3331 5.95146 94.7224 4.2815 96.7814 4.2815C97.5453 4.2815 98.1547 4.67234 98.4194 5.20176V1.84762H99.3237C100.368 1.84762 100.946 2.47119 100.946 3.65793V8.82238C100.946 11.8479 99.8851 13.2993 97.1545 13.2993ZM97.0301 6.46666C96.4368 6.46666 95.9376 7.15241 95.9376 8.61985C95.9376 10.5225 96.6233 11.1621 97.357 11.1621C98.1831 11.1621 98.3874 10.304 98.3874 9.0409C98.3874 6.9339 97.7941 6.46666 97.0301 6.46666Z" fill="#81C341" />
      <path d="M105.657 9.75862H104.691C104.691 10.6629 105.439 11.1621 106.453 11.1621C107.67 11.1621 108.309 10.8814 108.699 10.4906H108.777V11.2705C108.777 12.3311 108.029 13.2993 105.938 13.2993C103.582 13.2993 102.084 11.537 102.084 8.94674C102.084 6.23216 103.628 4.2815 105.892 4.2815C107.842 4.2815 109.23 5.52864 109.23 7.58945C109.228 9.33758 108.043 9.75862 105.657 9.75862ZM105.812 6.35652C105.14 6.35652 104.657 7.01206 104.627 8.02648H105.344C106.577 8.02648 106.826 7.77598 106.826 7.35494C106.826 6.70117 106.499 6.35652 105.812 6.35652Z" fill="#81C341" />
      <path d="M114.86 6.68518C114.595 6.54483 114.252 6.46666 113.861 6.46666C113.254 6.46666 112.925 6.71716 112.925 7.90212V13.0808H112.083C111.116 13.0808 110.383 12.5816 110.383 11.4428V7.57346C110.383 5.40428 111.506 4.2815 113.175 4.2815C114.439 4.2815 115 4.92106 115 5.68498V6.6834H114.86V6.68518Z" fill="#81C341" />
      <path fillRule="evenodd" clipRule="evenodd" d="M70.3552 4.0239C70.1651 1.59534 68.6888 0.881172 66.2122 1.26135C66.2122 3.64194 67.8786 4.30815 69.8311 4.07009C69.0689 3.21379 67.9746 2.40368 66.9744 1.73747C68.1647 2.21359 69.355 3.11785 70.3552 4.0239Z" fill="#81C341" />
      <path d="M15.337 0C15.337 0 13.9211 0.239836 13.0577 1.27201C12.4306 2.02172 12.2654 2.98106 12.2227 3.45185C12.1801 2.98106 12.0149 2.01994 11.3877 1.27201C10.5243 0.239836 9.10841 0 9.10841 0C9.10841 0 9.0942 1.43546 9.95938 2.46764C10.6291 3.26709 11.6276 3.59042 12.0451 3.69701C11.9136 3.38611 10.8974 1.95777 10.7642 1.75524C10.9276 1.94 12.0291 3.34881 12.2049 3.73255C12.2067 3.73255 12.2067 3.73255 12.2085 3.73255C12.2085 3.7361 12.2085 3.73965 12.2085 3.73965C12.2085 3.73965 12.2156 3.73787 12.2245 3.7361C12.2334 3.73787 12.2405 3.73965 12.2405 3.73965C12.2405 3.73965 12.2405 3.73787 12.2405 3.73432C12.2423 3.73432 12.2423 3.73432 12.244 3.73255C12.4199 3.34881 13.5214 1.94 13.6848 1.75524C13.5516 1.95777 12.5354 3.38611 12.4021 3.69701C12.8196 3.5922 13.8181 3.26887 14.4878 2.46764C15.3512 1.43546 15.337 0 15.337 0Z" fill="#81C341" />
    </svg>