  <svg id="tabler-icon-leaf" xmlns="http://www.w3.org/2000/svg" width="24" height="24" viewBox="0 0 24 24">
      <path id="Path_36518" data-name="Path 36518" d="M0,0H24V24H0Z" fill="none" />
      <g id="tabler-icon-gift">
        <rect id="Rectangle_7537" data-name="Rectangle 7537" width="18" height="4" rx="1" transform="translate(3 8)" fill="none" stroke="#00aeef" strokeLinecap="round" strokeLinejoin="round" strokeWidth="1.8" />
        <line id="Line_363" data-name="Line 363" y2="13" transform="translate(12 8)" fill="none" stroke="#00aeef" strokeLinecap="round" strokeLinejoin="round" strokeWidth="1.8" />
        <path id="Path_116105" data-name="Path 116105" d="M19,12v7a2,2,0,0,1-2,2H7a2,2,0,0,1-2-2V12" fill="none" stroke="#00aeef" strokeLinecap="round" strokeLinejoin="round" strokeWidth="1.8" />
        <path id="Path_116106" data-name="Path 116106" d="M7.5,8a2.5,2.5,0,0,1,0-5c1.974-.034,3.76,1.949,4.5,5,.74-3.051,2.526-5.034,4.5-5a2.5,2.5,0,0,1,0,5" fill="none" stroke="#00aeef" strokeLinecap="round" strokeLinejoin="round" strokeWidth="1.8" />
      </g>
    </svg>